<svg width="1600" height="950" viewBox="0 0 1600 950" fill="none" xmlns="http://www.w3.org/2000/svg">
  <rect width="1600" height="950" fill="#dfe7e7"/>
  <rect y="575" width="1600" height="375" fill="#b7c3bf"/>
  <rect x="875" y="80" width="590" height="520" rx="10" fill="#eff3f2"/>
  <rect x="920" y="128" width="500" height="424" fill="#9fb4b0"/>
  <path d="M920 552L1420 128V552H920Z" fill="#75908c" opacity=".55"/>
  <rect x="135" y="170" width="560" height="430" rx="10" fill="#f7f5ef"/>
  <rect x="184" y="215" width="462" height="338" fill="#849b98"/>
  <path d="M184 553L646 215V553H184Z" fill="#587573" opacity=".55"/>
  <rect x="0" y="574" width="1600" height="34" fill="#8d7c65"/>
  <rect x="310" y="545" width="980" height="55" rx="8" fill="#3c3128"/>
  <rect x="365" y="600" width="82" height="230" rx="18" fill="#2c241e"/>
  <rect x="1148" y="600" width="82" height="230" rx="18" fill="#2c241e"/>
  <rect x="495" y="500" width="610" height="86" rx="12" fill="#6a543d"/>
  <rect x="535" y="470" width="190" height="50" rx="8" fill="#ece2d0"/>
  <rect x="755" y="450" width="310" height="74" rx="8" fill="#101820"/>
  <rect x="780" y="472" width="125" height="10" rx="5" fill="#34c48f"/>
  <rect x="780" y="494" width="230" height="10" rx="5" fill="#e3bd5e"/>
  <rect x="1025" y="285" width="212" height="310" rx="8" fill="#18242e"/>
  <rect x="1048" y="315" width="166" height="36" rx="6" fill="#e3bd5e"/>
  <rect x="1048" y="374" width="166" height="22" rx="4" fill="#f6f7f8"/>
  <rect x="1048" y="414" width="122" height="18" rx="4" fill="#b7c3bf"/>
  <rect x="1048" y="462" width="166" height="68" rx="6" fill="#263341"/>
  <path d="M1260 505c32-36 52-35 78 0 25 34 35 75 17 105-21 35-92 35-113 0-18-30-8-71 18-105Z" fill="#0f171d"/>
  <path d="M250 511c30-34 51-34 76 0 24 33 33 73 16 101-20 33-88 33-108 0-17-28-7-68 16-101Z" fill="#1c2b33"/>
  <rect x="1180" y="662" width="135" height="160" rx="14" fill="#313f4b"/>
  <rect x="220" y="662" width="135" height="160" rx="14" fill="#35434d"/>
  <circle cx="1269" cy="475" r="37" fill="#c99764"/>
  <circle cx="284" cy="482" r="35" fill="#b98259"/>
  <rect x="1250" y="446" width="58" height="20" rx="10" fill="#2c241e"/>
  <rect x="252" y="453" width="60" height="20" rx="10" fill="#2c241e"/>
  <path d="M515 782c180-70 370-70 570 0" stroke="#7c8d88" stroke-width="20" stroke-linecap="round" opacity=".35"/>
  <circle cx="725" cy="664" r="8" fill="#34c48f"/>
  <circle cx="800" cy="650" r="8" fill="#e3bd5e"/>
  <circle cx="875" cy="664" r="8" fill="#e66f5c"/>
</svg>
